<svg width="13" height="13" viewBox="0 0 13 13" fill="none" xmlns="http://www.w3.org/2000/svg">
<g clip-path="url(#clip0_1912:3694)">
<path d="M10.25 4.51031H5.75C5.19772 4.51031 4.75 4.95803 4.75 5.51031V10.0103C4.75 10.5626 5.19772 11.0103 5.75 11.0103H10.25C10.8023 11.0103 11.25 10.5626 11.25 10.0103V5.51031C11.25 4.95803 10.8023 4.51031 10.25 4.51031Z" stroke="black" stroke-linecap="round" stroke-linejoin="round"/>
<path d="M2.75 7.51031H2.25C1.98478 7.51031 1.73043 7.40496 1.54289 7.21742C1.35536 7.02989 1.25 6.77553 1.25 6.51031V2.01031C1.25 1.7451 1.35536 1.49074 1.54289 1.30321C1.73043 1.11567 1.98478 1.01031 2.25 1.01031H6.75C7.01522 1.01031 7.26957 1.11567 7.45711 1.30321C7.64464 1.49074 7.75 1.7451 7.75 2.01031V2.51031" stroke="black" stroke-linecap="round" stroke-linejoin="round"/>
</g>
<defs>
<clipPath id="clip0_1912:3694">
<rect width="12" height="12" fill="white" transform="translate(0.25 0.0103149)"/>
</clipPath>
</defs>
</svg>
